<svg 
 xmlns="http://www.w3.org/2000/svg"
 xmlns:xlink="http://www.w3.org/1999/xlink"
 width="8px" height="8px">
<path fill-rule="evenodd"  fill="rgb(98, 129, 157)"
 d="M5.268,3.989 L7.234,5.931 C7.389,6.084 7.389,6.332 7.234,6.486 L6.579,7.133 C6.424,7.286 6.172,7.286 6.017,7.133 L4.051,5.191 L2.179,7.040 C2.024,7.193 1.773,7.193 1.617,7.040 L0.962,6.393 C0.807,6.240 0.807,5.992 0.962,5.838 L2.834,3.989 L0.962,2.140 C0.807,1.987 0.807,1.739 0.962,1.586 L1.617,0.938 C1.773,0.785 2.024,0.785 2.179,0.938 L4.051,2.787 L6.017,0.846 C6.172,0.693 6.424,0.693 6.579,0.846 L7.234,1.493 C7.389,1.646 7.389,1.895 7.234,2.048 L5.268,3.989 Z"/>
</svg>