<svg 
 xmlns="http://www.w3.org/2000/svg"
 xmlns:xlink="http://www.w3.org/1999/xlink"
 width="17px" height="17px">
<path fill-rule="evenodd"  fill="rgb(255, 255, 255)"
 d="M11.869,8.466 L15.876,12.375 C16.761,13.238 16.761,14.638 15.876,15.501 C14.990,16.365 13.555,16.365 12.670,15.501 L8.663,11.593 L4.255,15.892 C3.370,16.756 1.935,16.756 1.050,15.892 C0.165,15.029 0.165,13.629 1.050,12.765 L5.458,8.466 L1.050,4.167 C0.165,3.304 0.165,1.904 1.050,1.040 C1.935,0.177 3.370,0.177 4.255,1.040 L8.663,5.340 L12.670,1.431 C13.555,0.568 14.990,0.568 15.876,1.431 C16.761,2.295 16.761,3.694 15.876,4.558 L11.869,8.466 Z"/>
</svg>